<?xml version="1.0" standalone="no"?><!DOCTYPE svg PUBLIC "-//W3C//DTD SVG 1.1//EN" "http://www.w3.org/Graphics/SVG/1.1/DTD/svg11.dtd"><svg t="1742611100060" class="icon" viewBox="0 0 1024 1024" version="1.1" xmlns="http://www.w3.org/2000/svg" p-id="7676" xmlns:xlink="http://www.w3.org/1999/xlink" width="200" height="200"><path d="M939.380887 511.6802c4.477202-5.180762 8.634603-10.425484 12.792005-15.606246 72.530668-92.166396 90.439475-177.361149 50.52842-239.978014s-130.542411-91.270956-255.26446-80.973392c-7.227483 0.57564-14.454966 1.407121-21.810369 2.174641-2.814241-6.396002-5.820362-12.280325-8.762523-18.228607C664.54466 56.540662 591.694191 0 511.74416 0s-152.8005 56.732542-204.67208 159.388382c-3.070081 5.820362-5.820362 11.896565-8.762523 17.972767a634.163648 634.163648 0 0 0-21.618489-2.174641C152.096939 164.633104 61.337664 193.287196 21.426608 255.90406s-22.066209 147.811618 50.27258 239.978014c4.093442 5.180762 8.378763 10.425484 12.792005 15.606246-4.413242 5.180762-8.634603 10.425484-12.792005 15.606246-72.530668 92.166396-90.567395 177.361149-50.52842 239.978014 34.538413 54.238101 107.197002 83.148032 206.846721 83.148032 15.478326 0 31.596252-0.70356 48.225859-2.046721 7.227483-0.57564 14.454966-1.407121 21.874328-2.174641 2.814241 6.396002 5.820362 12.280325 8.762524 18.228608 52.19138 102.7198 125.105809 159.260462 205.1198 159.260462s152.8005-56.540662 205.1198-159.260462c3.070081-5.820362 5.820362-11.896565 8.762524-17.972767a634.163648 634.163648 0 0 0 70.356027 4.349281A232.686571 232.686571 0 0 0 1002.509432 767.5203c39.975016-62.616864 22.066209-147.811618-50.27258-239.978014a599.945034 599.945034 0 0 0-12.792005-15.798126zM269.399625 782.742786c-93.445597 7.803123-161.307183-9.849844-185.931792-48.481699s-7.611243-100.417239 46.882698-169.494066l1.918801-2.430481a918.401999 918.401999 0 0 0 110.075203 89.544035 780.312305 780.312305 0 0 0 30.700812 130.478451zM233.326171 560.289819c-19.699688-16.053966-38.376015-32.363773-54.877701-48.865459q25.13629-24.75253 54.877701-48.865459c-0.76752 16.181886-1.2792 32.427733-1.2792 48.929419s0.51168 32.811493 1.2792 48.993379z m9.146284-189.321674A917.634478 917.634478 0 0 0 132.397252 460.51218c-0.6396-0.83148-1.407121-1.599001-1.918801-2.430481-54.366021-69.268707-71.379388-131.054091-46.754778-169.558026a167.063585 167.063585 0 0 1 143.910056-50.20862c13.303685 0 27.438851 0.57564 42.021736 1.854841l3.581762 0.3198a781.527545 781.527545 0 0 0-30.764772 130.478451z m454.755777-52.767021a1309.581512 1309.581512 0 0 0-93.125796-48.481699c25.00837-7.355403 49.632979-13.431605 73.681949-18.228607a650.345534 650.345534 0 0 1 19.443847 66.710306z m-185.484072-252.706058c48.993379 0 100.800999 45.731418 140.712055 124.402248a1024.76752 1024.76752 0 0 0-140.200375 41.062336 1018.819238 1018.819238 0 0 0-140.712055-41.254216c39.399375-78.606871 91.206996-124.210369 140.200375-124.210368z m-166.296065 185.484072q36.201374 7.227483 73.937789 18.356527-23.601249 11.001124-47.266459 23.281449c-15.734166 8.122923-31.084572 16.629606-46.115178 25.20025a652.903935 652.903935 0 0 1 19.443848-66.582386z m-19.188008 454.116177a1309.581512 1309.581512 0 0 0 93.125797 48.481699c-25.00837 7.355403-49.632979 13.431605-73.681949 18.228607a642.222611 642.222611 0 0 1-19.443848-66.646346z m185.484073 252.833979c-48.993379 0-100.800999-45.731418-140.712055-124.402248a1024.83148 1024.83148 0 0 0 140.200375-41.062336 1018.691318 1018.691318 0 0 0 140.712055 41.254216c-39.463335 78.542911-91.270956 124.274329-140.200375 124.274328z m166.296065-185.867832q-36.201374-7.227483-73.937789-18.356528 23.601249-11.001124 47.266458-23.281449c15.734166-8.122923 31.084572-16.629606 46.115178-25.20025a652.392255 652.392255 0 0 1-19.443847 66.902187z m34.922174-155.358901a1124.545159 1124.545159 0 0 1-97.794879 57.116302c-34.282573 17.908807-69.076827 33.706933-103.61524 47.586259a1149.937289 1149.937289 0 0 1-201.026359-104.958401 906.761274 906.761274 0 0 1 0-209.916802 1124.225359 1124.225359 0 0 1 97.794879-57.116303c34.282573-17.908807 69.076827-33.706933 103.61524-47.586258a1149.937289 1149.937289 0 0 1 201.026359 104.958401 907.017114 907.017114 0 0 1 0 209.916802z m41.126296-376.340787c14.454966-1.2792 28.462211-1.854841 41.637976-1.854841a167.255465 167.255465 0 0 1 144.229856 50.33654c24.62461 38.376015 7.611243 100.417239-46.882698 169.494066l-1.918801 2.430481a918.210119 918.210119 0 0 0-110.075203-89.544035 780.312305 780.312305 0 0 0-30.700812-130.478451z m36.073454 222.580887c19.699688 16.053966 38.376015 32.363773 54.877701 48.865459q-25.13629 24.75253-54.877701 48.865459c0.76752-16.181886 1.2792-32.427733 1.2792-48.929419s-0.38376-32.683573-1.2792-48.737539z m149.602498 271.894066c-24.62461 38.376015-92.422236 56.156902-185.931793 48.289819l-3.581761-0.3198a780.312305 780.312305 0 0 0 30.700812-130.478451 917.762399 917.762399 0 0 0 110.075203-89.544035c0.6396 0.83148 1.407121 1.599001 1.918801 2.430481 54.557901 69.204747 71.443348 130.990131 46.818738 169.685946z" fill="#CBCCCD" p-id="7677"></path><path d="M476.949906 501.766396h-29.357651v-29.357651a18.036727 18.036727 0 0 0-35.114054 0v29.357651H383.12055a18.036727 18.036727 0 0 0 0 35.114054h29.357651v29.357651a18.036727 18.036727 0 0 0 35.114054 0v-29.357651h29.357651a18.036727 18.036727 0 0 0 0-35.114054z m168.086946 0H551.335415a18.036727 18.036727 0 0 0 0 35.114054h93.701437a15.990006 15.990006 0 0 0 13.751405-17.525047 15.798126 15.798126 0 0 0-13.751405-17.589007z" fill="#CBCCCD" p-id="7678"></path></svg>